<?xml version="1.0" encoding="UTF-8"?>
<!-- Generated by Pixelmator Pro 3.6.13 -->
<svg width="3072" height="3072" viewBox="0 0 3072 3072" xmlns="http://www.w3.org/2000/svg">
    <path id="BG" fill="#f1f7ef" fill-rule="evenodd" stroke="none" d="M 3072 1536 C 3072 687.690674 2384.309326 0 1536 0 C 687.690613 0 0 687.690674 0 1536 C 0 2384.309326 687.690613 3072 1536 3072 C 2384.309326 3072 3072 2384.309326 3072 1536 Z"/>
    <g id="Checkmark">
        <linearGradient id="linearGradient1" x1="1762.769572" y1="1954.448837" x2="1336.185328" y2="2693.314421" gradientUnits="userSpaceOnUse">
            <stop offset="0" stop-color="#20ec74" stop-opacity="1"/>
            <stop offset="1" stop-color="#0dae58" stop-opacity="1"/>
        </linearGradient>
        <path id="Oval" fill="url(#linearGradient1)" fill-rule="evenodd" stroke="#290919" stroke-width="50" stroke-linecap="round" stroke-linejoin="round" d="M 1994 2362.5 C 1994 2109.277344 1788.722534 1904 1535.5 1904 C 1282.277466 1904 1077 2109.277344 1077 2362.5 C 1077 2615.722656 1282.277466 2821 1535.5 2821 C 1788.722534 2821 1994 2615.722656 1994 2362.5 Z"/>
        <path id="Path" fill="none" stroke="#ffffff" stroke-width="150" stroke-linecap="round" stroke-linejoin="round" d="M 1327 2375 L 1457 2505 L 1744 2218 L 1454 2508 L 1327 2375 Z"/>
    </g>
    <linearGradient id="linearGradient2" x1="1562.396151" y1="245.663434" x2="1562.396151" y2="1608.395293" gradientUnits="userSpaceOnUse">
        <stop offset="0" stop-color="#d4b29f" stop-opacity="1"/>
        <stop offset="1" stop-color="#b48071" stop-opacity="1"/>
    </linearGradient>
    <path id="Poop" fill="url(#linearGradient2)" fill-rule="evenodd" stroke="#321a22" stroke-width="80" stroke-linecap="round" stroke-linejoin="round" d="M 2047 1189 C 2051.828125 1189.36792 2145.848389 1191.190308 2150.836914 1191.190308 C 2400.836914 1191.190308 2415.906494 1396.890381 2413 1479 C 2410.539795 1548.500977 2370 1721 2146 1721 L 1311 1721 L 935 1721 C 790.37384 1723.472656 658 1645 658 1480 C 658 1361.394775 676.4328 1214.536621 932 1184 C 975.892395 1178.755493 1052 1181 1052 1181 C 1052 1181 931.763916 1186.313599 925 1176 C 889.220215 1121.443115 899.085449 1042.197876 917.278625 962.79834 C 951.866638 811.8479 1099.05542 740.476563 1263 722 C 1264.133179 721.872314 1349 718 1349 718 L 1276 714 C 1282.386475 711.209229 1474.973999 583.281006 1511 510 C 1531.823608 467.642578 1537.439331 410.342773 1519 364 C 1505.271851 329.497559 1457 257 1457 257 C 1564.938354 247.36377 1744.801758 349.835205 1798 449 C 1888.171875 617.085938 1854.162842 705.201172 1824 746 L 1811 753 C 1932.896118 726.618652 2031.459473 766.888672 2084 827 C 2179.025146 935.717773 2171.646973 1010.783691 2154.880615 1148.132202 L 2147 1191 Z"/>
    <g id="Face-copy">
        <path id="Mouth" fill="none" stroke="#321a22" stroke-width="80" stroke-linecap="round" stroke-linejoin="round" d="M 1399 1227 C 1399 1227 1423 1302 1536 1302 C 1650.032715 1302 1671.814087 1223.278687 1672 1227"/>
        <g id="Eyes">
            <path id="path1" fill="#321a22" fill-rule="evenodd" stroke="none" d="M 1360 1052 C 1360 996.771484 1315.228516 952 1260 952 C 1204.771484 952 1160 996.771484 1160 1052 C 1160 1107.228516 1204.771484 1152 1260 1152 C 1315.228516 1152 1360 1107.228516 1360 1052 Z"/>
            <path id="Oval-copy" fill="#321a22" fill-rule="evenodd" stroke="none" d="M 1906 1052 C 1906 996.771484 1861.228516 952 1806 952 C 1750.771484 952 1706 996.771484 1706 1052 C 1706 1107.228516 1750.771484 1152 1806 1152 C 1861.228516 1152 1906 1107.228516 1906 1052 Z"/>
        </g>
    </g>
</svg>
